<svg width="113" height="29" viewBox="0 0 113 29" fill="none" xmlns="http://www.w3.org/2000/svg">
<path class="logo" fill-rule="evenodd" clip-rule="evenodd" d="M12.6532 0.868659C13.8348 -0.289553 15.7505 -0.289553 16.9321 0.868659L28.6991 12.4029C29.8807 13.5611 29.8807 15.4389 28.6991 16.5971L16.9321 28.1313C15.7505 29.2896 13.8348 29.2896 12.6532 28.1313L0.886191 16.5971C-0.295397 15.4389 -0.295397 13.5611 0.886191 12.4029L12.6532 0.868659ZM4.47735 13.3766C3.84435 13.9971 3.84435 15.0031 4.47735 15.6235C5.11034 16.244 6.13663 16.244 6.76962 15.6235L11.889 10.6055C12.522 9.98501 12.522 8.97903 11.889 8.35856C11.256 7.73808 10.2297 7.73809 9.59668 8.35856L4.47735 13.3766ZM15.9386 6.63593C15.3056 7.2564 14.2793 7.25646 13.6463 6.63599C13.0133 6.01552 13.0134 5.00948 13.6463 4.38901C14.2793 3.76854 15.3057 3.76848 15.9387 4.38895C16.5717 5.00942 16.5716 6.01546 15.9386 6.63593ZM20.5231 8.88292C19.8901 8.26245 18.8638 8.26245 18.2308 8.88292L9.0619 17.8705C8.42891 18.4909 8.42891 19.4969 9.0619 20.1174C9.69489 20.7379 10.7212 20.7379 11.3542 20.1174L20.5231 11.1298C21.1561 10.5094 21.1561 9.50339 20.5231 8.88292ZM22.8154 13.3768C23.4484 12.7563 24.4747 12.7563 25.1077 13.3768C25.7407 13.9972 25.7407 15.0032 25.1077 15.6237L19.9884 20.6417C19.3554 21.2622 18.3291 21.2622 17.6961 20.6417C17.0631 20.0212 17.0631 19.0153 17.6961 18.3948L22.8154 13.3768ZM15.9387 22.3643C15.3057 21.7439 14.2795 21.7439 13.6465 22.3643C13.0135 22.9848 13.0135 23.9907 13.6465 24.6112C14.2794 25.2317 15.3057 25.2317 15.9387 24.6112C16.5717 23.9908 16.5717 22.9848 15.9387 22.3643Z" fill="#F83420"/>
<path class="iso" d="M46.6763 9.61741H40.0288V13.3784H46.1769V16.369H40.0288V22.4863H36.8391V6.62676H46.6763V9.61741Z" fill="#03032D"/>
<path class="iso" d="M56.2055 11.158H59.1871V22.4863H56.2055V21.2175C55.4812 22.2748 54.3333 22.8034 52.7615 22.8034C51.498 22.8034 50.4502 22.3881 49.6181 21.5573C48.8014 20.7266 48.393 19.5787 48.393 18.1136V11.158H51.3747V17.5492C51.3747 18.3044 51.5827 18.8859 51.9988 19.2937C52.4148 19.6864 52.9696 19.8828 53.663 19.8828C54.4334 19.8828 55.0498 19.6487 55.5121 19.1804C55.9743 18.7122 56.2055 18.0099 56.2055 17.0734V11.158Z" fill="#03032D"/>
<path class="iso" d="M64.7124 14.3753C64.7124 14.6773 64.9128 14.9266 65.3134 15.1229C65.7295 15.3042 66.2302 15.4703 66.8158 15.6214C67.4013 15.7573 67.9869 15.9385 68.5724 16.1651C69.158 16.3766 69.651 16.7391 70.0517 17.2526C70.4677 17.7662 70.6758 18.4081 70.6758 19.1784C70.6758 20.3414 70.2289 21.2402 69.3352 21.8745C68.4568 22.4938 67.3551 22.8034 66.0299 22.8034C63.6569 22.8034 62.039 21.9047 61.1761 20.1073L63.7648 18.68C64.1038 19.6618 64.8588 20.1526 66.0299 20.1526C67.0931 20.1526 67.6247 19.8279 67.6247 19.1784C67.6247 18.8763 67.4167 18.6347 67.0007 18.4534C66.6 18.2571 66.107 18.0834 65.5214 17.9323C64.9359 17.7813 64.3503 17.5925 63.7648 17.3659C63.1792 17.1393 62.6784 16.7844 62.2624 16.3011C61.8618 15.8026 61.6614 15.1833 61.6614 14.4432C61.6614 13.3255 62.0775 12.4495 62.9096 11.8151C63.7571 11.1656 64.8049 10.8409 66.053 10.8409C66.993 10.8409 67.8482 11.0523 68.6186 11.4752C69.3891 11.8831 69.9978 12.4721 70.4446 13.2424L67.9021 14.6018C67.5323 13.8315 66.9159 13.4463 66.053 13.4463C65.6678 13.4463 65.3442 13.5294 65.0823 13.6956C64.8357 13.8617 64.7124 14.0883 64.7124 14.3753Z" fill="#03032D"/>
<path class="iso" d="M75.2262 18.0229C75.6269 19.4427 76.7132 20.1526 78.4853 20.1526C79.6255 20.1526 80.4885 19.775 81.074 19.0198L83.4778 20.3792C82.3375 21.9954 80.658 22.8034 78.439 22.8034C76.5283 22.8034 74.9951 22.237 73.8394 21.1042C72.6837 19.9714 72.1059 18.544 72.1059 16.8222C72.1059 15.1154 72.676 13.6956 73.8163 12.5627C74.9566 11.4148 76.4204 10.8409 78.2079 10.8409C79.9029 10.8409 81.2974 11.4148 82.3915 12.5627C83.5009 13.7107 84.0557 15.1305 84.0557 16.8222C84.0557 17.1998 84.0171 17.6 83.9401 18.0229H75.2262ZM75.18 15.7573H81.074C80.9045 14.987 80.5501 14.413 80.0108 14.0354C79.4869 13.6578 78.8859 13.469 78.2079 13.469C77.4066 13.469 76.744 13.6729 76.2201 14.0807C75.6962 14.4734 75.3495 15.0323 75.18 15.7573Z" fill="#03032D"/>
<path class="iso" d="M92.6519 10.8409C94.2083 10.8409 95.5335 11.4224 96.6275 12.5854C97.737 13.7333 98.2917 15.1456 98.2917 16.8222C98.2917 18.4987 97.737 19.9185 96.6275 21.0816C95.5335 22.2295 94.2083 22.8034 92.6519 22.8034C91.034 22.8034 89.7858 22.2521 88.9075 21.1495V22.4863H85.9259V6.62676H88.9075V12.4948C89.7858 11.3922 91.034 10.8409 92.6519 10.8409ZM89.809 19.1331C90.4099 19.7222 91.1727 20.0167 92.0972 20.0167C93.0218 20.0167 93.7845 19.7222 94.3855 19.1331C95.0018 18.5289 95.3101 17.7586 95.3101 16.8222C95.3101 15.8857 95.0018 15.1229 94.3855 14.5339C93.7845 13.9297 93.0218 13.6276 92.0972 13.6276C91.1727 13.6276 90.4099 13.9297 89.809 14.5339C89.208 15.1229 88.9075 15.8857 88.9075 16.8222C88.9075 17.7586 89.208 18.5289 89.809 19.1331Z" fill="#03032D"/>
<path class="iso" d="M101.699 9.79866C101.206 9.79866 100.774 9.62496 100.404 9.27756C100.05 8.91506 99.8729 8.49214 99.8729 8.0088C99.8729 7.52547 100.05 7.10255 100.404 6.74004C100.774 6.37754 101.206 6.19629 101.699 6.19629C102.207 6.19629 102.639 6.37754 102.993 6.74004C103.363 7.10255 103.548 7.52547 103.548 8.0088C103.548 8.49214 103.363 8.91506 102.993 9.27756C102.639 9.62496 102.207 9.79866 101.699 9.79866ZM100.22 22.4863V11.158H103.201V22.4863H100.22Z" fill="#03032D"/>
<path class="iso" d="M112.609 13.9674H109.998V18.68C109.998 19.0727 110.098 19.3597 110.298 19.5409C110.498 19.7222 110.791 19.8279 111.176 19.8581C111.562 19.8732 112.039 19.8657 112.609 19.8355V22.4863C110.56 22.7128 109.112 22.524 108.264 21.9198C107.432 21.3157 107.016 20.2357 107.016 18.68V13.9674H105.005V11.158H107.016V7.98615H109.998V11.158H112.609V13.9674Z" fill="#03032D"/>
</svg>
