<svg 
  fill="none"
  width="847" 
  height="2262" 
>
  <g >
    <path fill="#D7E5FF" fill-rule="evenodd" d="M13 24v772h2V312.185C20.342 328.62 35.784 340.5 54 340.5h16c21.54 0 39 17.461 39 39v8.5h2v-8.5c0-18.217-11.88-33.658-28.315-39H437c21.539 0 39 17.461 39 39v8.5h2v-8.5c0-18.217-11.88-33.658-28.315-39H805.5c21.539 0 39 17.461 39 39v8.5h2v-8.5c0-22.644-18.356-41-41-41H54c-21.494 0-38.927-17.388-39-38.866V24h-2Z" clip-rule="evenodd" />
  </g>
  <g >
    <circle cx="1" cy="8" r="1" fill="#D7E5FF"/>
    <circle cx="27" cy="8" r="1" fill="#D7E5FF"/>
    <circle cx="14" cy="8" r="7" stroke="#D7E5FF" stroke-width="2"/>
  </g>
  <g >
    <circle cx="566" cy="1924" r="1" fill="#D7E5FF"/>
    <circle cx="592" cy="1924" r="1" fill="#D7E5FF"/>
    <circle cx="579" cy="1924" r="7" stroke="#D7E5FF" stroke-width="2"/>
  </g>
  <g >
    <circle cx="566" cy="2000" r="1" fill="#D7E5FF"/>
    <circle cx="592" cy="2000" r="1" fill="#D7E5FF"/>
    <circle cx="579" cy="2000" r="7" stroke="#D7E5FF" stroke-width="2"/>
  </g>
  <g >
    <circle cx="566" cy="2075" r="1" fill="#D7E5FF"/>
    <circle cx="592" cy="2075" r="1" fill="#D7E5FF"/>
    <circle cx="579" cy="2075" r="7" stroke="#D7E5FF" stroke-width="2"/>
  </g>
  <g >
    <circle cx="1" cy="1227" r="1" fill="#D7E5FF"/>
    <circle cx="27" cy="1227" r="1" fill="#D7E5FF"/>
    <circle cx="14" cy="1227" r="7" stroke="#D7E5FF" stroke-width="2"/>
  </g>
  <g >
    <circle cx="1" cy="1302" r="1" fill="#D7E5FF"/>
    <circle cx="27" cy="1302" r="1" fill="#D7E5FF"/>
    <circle cx="14" cy="1302" r="7" stroke="#D7E5FF" stroke-width="2"/>
  </g>
  <g >
    <circle cx="1" cy="1378" r="1" fill="#D7E5FF"/>
    <circle cx="27" cy="1378" r="1" fill="#D7E5FF"/>
    <circle cx="14" cy="1378" r="7" stroke="#D7E5FF" stroke-width="2"/>
  </g>
  <path fill="#D7E5FF" fill-rule="evenodd" d="M13 1458.7V2262h2v-790.81c5.342 16.43 20.784 28.31 39 28.31H539.05c21.539 0 39 17.46 39 39v37.56a17.829 17.829 0 0 1 2-.05v-37.51c0-22.64-18.356-41-41-41H53.999c-21.474 0-38.894-17.36-38.999-38.81v-64.72a16.633 16.633 0 0 1-2 0v64.73Zm565.051 449.37v-292.13c.484.04.974.06 1.468.06.178 0 .355 0 .532-.01v292.02c-.176-.01-.353-.01-.531-.01-.495 0-.986.02-1.469.07Zm0 31.86v44.14c.483-.05.974-.07 1.469-.07.178 0 .355 0 .531.01v-44.02c-.067 0-.133 0-.2.01h-.331c-.495 0-.986-.03-1.469-.07Zm0 119.14v-43.14c.483.04.974.07 1.469.07.178 0 .355 0 .531-.01v43.02c-.176-.01-.353-.01-.531-.01-.495 0-.986.02-1.469.07Zm0 31.86v133.57h2v-133.51c-.176.01-.353.01-.531.01-.495 0-.986-.03-1.469-.07ZM13 1362.03a16.482 16.482 0 0 1 2 0v-44.06a16.633 16.633 0 0 1-2 0v44.06Zm2-119.06v43.06a16.635 16.635 0 0 0-2 0v-43.06a16.482 16.482 0 0 0 2 0Zm-2-31.94a16.488 16.488 0 0 1 2 0V914.972a15.783 15.783 0 0 1-2-.006v296.064ZM15 796v87.028a15.785 15.785 0 0 0-2 .006V796h2Z" clip-rule="evenodd" />
  <g >
    <circle cx="566" cy="1596" r="1" fill="#D7E5FF"/>
    <circle cx="592" cy="1596" r="1" fill="#D7E5FF"/>
    <circle cx="579" cy="1596" r="7" stroke="#D7E5FF" stroke-width="2"/>
  </g>
  <g >
    <circle cx="1" cy="899" r="1" fill="#D7E5FF"/>
    <circle cx="27" cy="899" r="1" fill="#D7E5FF"/>
    <circle cx="14" cy="899" r="7" stroke="#D7E5FF" stroke-width="2"/>
  </g>
</svg>